WWW..CRAZY-TORRENT..COM


Format                         : AVI
Format/Info                      : Audio Video Interleave
File size                        : 1.27 GiDuration                       
Overall bit rate               : 1 841 Kbps
Writing application              : VirtualDubMod 1.5.4.1 (build 2178/release)
Writing library                  : VirtualDubMod build 2178/release



Video
ID                             : 0
Format                         : MPEG-4 Visua
Format profile                 : Advanced Simple@L5
Format settings, BVOP            : 1
Format settings, QPel            : No
Format settings, GMC           : No warppoints
Format settings, Matrix          : Custom
Codec ID                       : XVID
Codec ID/Hint                    : XviD
Duration                       : 1h 38mn
Bit rate                       : 1 387 Kbps
Width                            : 704 pixels
Height                         : 304 pixels
Display aspect ratio           : 2.35:1
Frame rate                     : 23.976 fps
Color space                      : YU
Chroma subsampling             : 4:2:0
Bit depth                        : 8 bits
Scan type                        : Progressive
Compression mode               : Lossy
Bits/(Pixel*Frame)             : 0.270
Stream size                      : 979 MiB (75%)
Writing library                  : XviD 58




Audio
ID                             : 1
Format                         : AC-3
ormat/Info                      : Audio Coding 3
Mode extension                 : CM (complete main)
Codec ID                       : 2000
Duration                       : 1h 38mn
Bit rate mode                    : Constant
Bit rate                       : 448 Kbps
Channel(s)                     : 6 channels
Channel positions                : Front: L C R, Side: L R, LFE
Sampling rate                    : 48.0 KHz
Bit depth                        : 16 bits
Compression mode               : Lossy
Delay relative to video          : 15ms
Stream size                      : 316 MiB (24%)
Alignment                        : Split accross interleaves
Interleave, duration           : 96 ms (2.30 video frames)
Interleave, preload duration   : 96 ms
Language                       : English[dubed]
subs                           : no



nfo

sfv

thumbs and snaps from the movie

enjoy! 
 
http://img64.imageshack.us/img64/315/thumbs20110211235222.jpg

WWW..CRAZY-TORRENT..COM